<svg version="1.1" xmlns="http://www.w3.org/2000/svg" viewBox="0 0 867.737548828125 551.934455871582" width="867.737548828125" height="551.934455871582" filter="invert(93%) hue-rotate(180deg)">
  <!-- svg-source:excalidraw -->
  
  <defs>
    <style>
      @font-face {
        font-family: "Virgil";
        src: url("https://excalidraw.com/Virgil.woff2");
      }
      @font-face {
        font-family: "Cascadia";
        src: url("https://excalidraw.com/Cascadia.woff2");
      }
    </style>
  </defs>
  <rect x="0" y="0" width="867.737548828125" height="551.934455871582" fill="#ffffff"></rect><g stroke-linecap="round" transform="translate(10 67.7049560546875) rotate(0 423.8687744140625 237.11474990844727)"><path d="M0.7 -0.36 C276.84 -2.13, 553.1 -2.61, 847.16 0.43 M0.18 -0.28 C282.63 3.61, 565.75 3.56, 847.76 -0.25 M846.93 0.27 C847.12 112.82, 846.08 226.26, 848.17 474.35 M848.05 -0.1 C846.85 185.45, 846.93 371.44, 847.96 474.64 M847.06 474.06 C523.02 473.44, 196.46 472.97, 0.04 474.63 M848.02 474.55 C575.59 470.8, 302.95 470.55, -0.25 474.01 M-0.77 474.2 C1.92 355.08, 2.12 236.4, 0.21 -0.06 M-0.23 474.16 C1.07 358.47, 0.94 242.6, -0.22 0.2" stroke="#000000" stroke-width="1" fill="none"></path></g><g stroke-linecap="round" transform="translate(139.04901123046875 265.99988555908203) rotate(0 304.78692626953125 35.67210388183594)"><path d="M0.61 -0.31 C163.3 1.42, 327.55 1.42, 609.91 0.71 M-0.29 -0.18 C159.66 -0.83, 319.19 -0.63, 609.64 -0.27 M610.21 -1.65 C610.86 14.9, 610.59 27.54, 610.53 70.84 M609.52 -0.15 C610.23 19.95, 609.46 41, 609.93 70.59 M608.86 71.94 C435.92 70.27, 261 71.09, -0.72 71.7 M609.18 71.08 C461.77 71.9, 314.47 71.98, 0.21 71.62 M-1.98 73.08 C-1.17 45.21, 0.17 15.06, -1.08 -0.36 M0.67 70.74 C0.88 49.14, 0.84 26.37, 0.57 0.22" stroke="#000000" stroke-width="1" fill="none"></path></g><g transform="translate(323.50836181640625 289.0656204223633) rotate(0 123 12.5)"><text x="0" y="18" font-family="Virgil, Segoe UI Emoji" font-size="20px" fill="#000000" text-anchor="start" style="white-space: pre;" direction="ltr">Bem vindo a minha página</text></g><g transform="translate(672.9179077148438 224.70511627197266) rotate(0 26 12.5)"><text x="0" y="18" font-family="Virgil, Segoe UI Emoji" font-size="20px" fill="#000000" text-anchor="start" style="white-space: pre;" direction="ltr">Sobre</text></g><g transform="translate(145.8687744140625 225.0492935180664) rotate(0 49.5 12.5)"><text x="0" y="18" font-family="Virgil, Segoe UI Emoji" font-size="20px" fill="#000000" text-anchor="start" style="white-space: pre;" direction="ltr">Trabalhos</text></g><g stroke-linecap="round" transform="translate(11.049346923828125 10) rotate(0 422.8195037841797 19.93441390991211)"><path d="M-0.7 -0.43 C272.44 -2.85, 543.93 -2.27, 846.15 0.12 M-0.09 -0.39 C287.8 -0.25, 575.29 -0.35, 845.71 -0.03 M847.55 -1.93 C846.96 15.9, 843.87 30.5, 845.89 38.19 M846.11 0.02 C845.9 12.1, 846.24 23.03, 845.05 39.13 M845.21 39.78 C663.5 38.81, 480.68 38.75, -0.7 39.24 M845.59 40.27 C576.5 39.67, 306.93 39.91, 0.09 39.53 M-1.7 39.52 C-1.2 29.49, 1.29 15.86, 1.61 -1.88 M-0.2 40.62 C-0.34 26.08, 1.01 13.63, 0.81 0.98" stroke="#000000" stroke-width="1" fill="none"></path></g><g transform="translate(33.52471923828125 16.459022521972656) rotate(0 27.5 12.5)"><text x="0" y="18" font-family="Virgil, Segoe UI Emoji" font-size="20px" fill="#000000" text-anchor="start" style="white-space: pre;" direction="ltr">/home</text></g><g transform="translate(482.88531494140625 223.7050552368164) rotate(0 40.5 12.5)"><text x="0" y="18" font-family="Virgil, Segoe UI Emoji" font-size="20px" fill="#000000" text-anchor="start" style="white-space: pre;" direction="ltr">Contato</text></g><g transform="translate(329.13104248046875 224.34418487548828) rotate(0 26 12.5)"><text x="0" y="18" font-family="Virgil, Segoe UI Emoji" font-size="20px" fill="#000000" text-anchor="start" style="white-space: pre;" direction="ltr">Início</text></g><g transform="translate(274.95086669921875 359.3278579711914) rotate(0 168 12.5)"><text x="0" y="18" font-family="Virgil, Segoe UI Emoji" font-size="20px" fill="#000000" text-anchor="start" style="white-space: pre;" direction="ltr">Tarcísio Menezes - Desenvolvedor</text></g></svg>